<svg width="186" height="31" viewBox="0 0 186 31" fill="none" xmlns="http://www.w3.org/2000/svg">
<path d="M0.489756 24V1.6H6.24976V10.592L14.0578 1.6H20.3298L12.0098 10.816L20.9698 24H14.2498L8.10576 14.56L6.24976 16.608V24H0.489756ZM74.081 24V1.6H79.969L86.177 12.96L92.321 1.6H98.081V24H92.321V11.168L87.681 19.68H84.481L79.841 11.168V24H74.081Z" fill="#D7341D"/>
<path d="M23.9973 24V7.04H28.9253V24H23.9973ZM26.4613 5.44C25.5439 5.44 24.8293 5.20533 24.3173 4.736C23.8266 4.24533 23.5813 3.62667 23.5813 2.88C23.5813 2.13333 23.8266 1.52533 24.3173 1.056C24.8293 0.565333 25.5439 0.32 26.4613 0.32C27.3786 0.32 28.0826 0.565333 28.5733 1.056C29.0853 1.52533 29.3413 2.13333 29.3413 2.88C29.3413 3.62667 29.0853 4.24533 28.5733 4.736C28.0826 5.20533 27.3786 5.44 26.4613 5.44ZM33.0985 24V7.04H37.6425V9.344C38.0692 8.576 38.7305 7.936 39.6265 7.424C40.5438 6.89067 41.7598 6.624 43.2745 6.624C45.3012 6.624 46.8265 7.168 47.8505 8.256C48.8958 9.344 49.4185 10.912 49.4185 12.96V24H44.4905V14.08C44.4905 12.9707 44.2452 12.1387 43.7545 11.584C43.2852 11.008 42.5065 10.72 41.4185 10.72C40.6292 10.72 39.9785 10.88 39.4665 11.2C38.9758 11.4987 38.6132 11.904 38.3785 12.416C38.1438 12.9067 38.0265 13.4613 38.0265 14.08V24H33.0985ZM60.7935 30.816C58.9588 30.816 57.4868 30.592 56.3775 30.144C55.2895 29.7173 54.4895 29.0987 53.9775 28.288C53.4868 27.4773 53.1988 26.528 53.1135 25.44H58.1375C58.2442 25.824 58.4788 26.1867 58.8415 26.528C59.2255 26.8693 59.8762 27.04 60.7935 27.04C62.0735 27.04 63.0335 26.7413 63.6735 26.144C64.3348 25.568 64.6655 24.64 64.6655 23.36V21.536C64.0895 22.368 63.3642 23.008 62.4895 23.456C61.6362 23.8827 60.7295 24.096 59.7695 24.096C58.2975 24.096 57.0068 23.776 55.8975 23.136C54.8095 22.496 53.9668 21.5467 53.3695 20.288C52.7722 19.0293 52.4735 17.44 52.4735 15.52V14.88C52.4735 13.088 52.7615 11.584 53.3375 10.368C53.9348 9.13067 54.7775 8.20267 55.8655 7.584C56.9748 6.944 58.2762 6.624 59.7695 6.624C61.0922 6.624 62.1908 6.912 63.0655 7.488C63.9615 8.04267 64.6228 8.66133 65.0495 9.344V7.04H69.5935V22.88C69.5935 25.5253 68.8788 27.5093 67.4495 28.832C66.0415 30.1547 63.8228 30.816 60.7935 30.816ZM60.9535 20.032C61.6575 20.032 62.2868 19.872 62.8415 19.552C63.3962 19.232 63.8335 18.7733 64.1535 18.176C64.4948 17.5573 64.6655 16.832 64.6655 16V14.4C64.6655 13.5893 64.4948 12.9173 64.1535 12.384C63.8335 11.8293 63.3962 11.4133 62.8415 11.136C62.2868 10.8373 61.6575 10.688 60.9535 10.688C59.9508 10.688 59.1295 11.04 58.4895 11.744C57.8495 12.4267 57.5295 13.472 57.5295 14.88V15.52C57.5295 16.992 57.8495 18.112 58.4895 18.88C59.1508 19.648 59.9722 20.032 60.9535 20.032ZM110.55 24.416C108.971 24.416 107.52 24.1067 106.198 23.488C104.896 22.8693 103.851 21.9093 103.062 20.608C102.294 19.2853 101.91 17.6427 101.91 15.68V15.04C101.91 13.2053 102.294 11.6693 103.062 10.432C103.851 9.17333 104.896 8.224 106.198 7.584C107.52 6.944 108.971 6.624 110.55 6.624C112.15 6.624 113.6 6.944 114.902 7.584C116.203 8.224 117.238 9.17333 118.006 10.432C118.795 11.6693 119.19 13.2053 119.19 15.04V15.68C119.19 17.6213 118.795 19.2427 118.006 20.544C117.238 21.824 116.203 22.7947 114.902 23.456C113.6 24.096 112.15 24.416 110.55 24.416ZM110.55 20.32C111.318 20.32 111.968 20.1387 112.502 19.776C113.035 19.392 113.44 18.848 113.718 18.144C113.995 17.44 114.134 16.6187 114.134 15.68V15.04C114.134 14.1867 113.995 13.44 113.718 12.8C113.44 12.16 113.035 11.6587 112.502 11.296C111.968 10.912 111.318 10.72 110.55 10.72C109.782 10.72 109.131 10.912 108.598 11.296C108.064 11.6587 107.659 12.16 107.382 12.8C107.104 13.44 106.966 14.1867 106.966 15.04V15.68C106.966 16.6613 107.104 17.504 107.382 18.208C107.659 18.8907 108.064 19.4133 108.598 19.776C109.131 20.1387 109.782 20.32 110.55 20.32ZM127.608 24L120.472 7.04H125.912L130.2 18.336L134.104 7.04H139.032L132.568 24H127.608ZM141.9 24V7.04H146.828V24H141.9ZM144.364 5.44C143.446 5.44 142.732 5.20533 142.22 4.736C141.729 4.24533 141.484 3.62667 141.484 2.88C141.484 2.13333 141.729 1.52533 142.22 1.056C142.732 0.565333 143.446 0.32 144.364 0.32C145.281 0.32 145.985 0.565333 146.476 1.056C146.988 1.52533 147.244 2.13333 147.244 2.88C147.244 3.62667 146.988 4.24533 146.476 4.736C145.985 5.20533 145.281 5.44 144.364 5.44ZM159.161 24.416C157.497 24.416 156.004 24.1067 154.681 23.488C153.358 22.848 152.302 21.8773 151.513 20.576C150.745 19.2747 150.361 17.6427 150.361 15.68V15.04C150.361 13.1627 150.734 11.6053 151.481 10.368C152.228 9.13067 153.241 8.20267 154.521 7.584C155.822 6.944 157.262 6.624 158.841 6.624C161.636 6.624 163.748 7.34933 165.177 8.8C166.606 10.2293 167.321 12.3093 167.321 15.04V16.832H155.417C155.46 17.664 155.652 18.3573 155.993 18.912C156.356 19.4667 156.814 19.872 157.369 20.128C157.924 20.3627 158.521 20.48 159.161 20.48C160.1 20.48 160.836 20.3413 161.369 20.064C161.924 19.7653 162.286 19.3707 162.457 18.88H167.001C166.66 20.736 165.817 22.1227 164.473 23.04C163.129 23.9573 161.358 24.416 159.161 24.416ZM159.001 10.56C158.404 10.56 157.838 10.656 157.305 10.848C156.772 11.04 156.334 11.36 155.993 11.808C155.673 12.2347 155.492 12.8213 155.449 13.568H162.489C162.489 12.7787 162.329 12.1707 162.009 11.744C161.689 11.296 161.262 10.9867 160.729 10.816C160.217 10.6453 159.641 10.56 159.001 10.56ZM177.876 24.416C176.489 24.416 175.295 24.2773 174.292 24C173.311 23.7013 172.5 23.3067 171.86 22.816C171.22 22.304 170.74 21.7173 170.42 21.056C170.1 20.3733 169.919 19.648 169.876 18.88H174.804C174.932 19.3493 175.209 19.7653 175.636 20.128C176.063 20.4693 176.809 20.64 177.876 20.64C178.964 20.64 179.743 20.4907 180.212 20.192C180.681 19.8933 180.916 19.4987 180.916 19.008C180.916 18.752 180.809 18.528 180.596 18.336C180.404 18.1227 180.031 17.9307 179.476 17.76C178.943 17.5893 178.164 17.4187 177.14 17.248C176.201 17.0987 175.316 16.9067 174.484 16.672C173.673 16.4373 172.959 16.128 172.34 15.744C171.721 15.3387 171.231 14.8267 170.868 14.208C170.527 13.5893 170.356 12.8107 170.356 11.872C170.356 10.8693 170.655 9.97333 171.252 9.184C171.849 8.39467 172.713 7.776 173.844 7.328C174.975 6.85867 176.319 6.624 177.876 6.624C179.647 6.624 181.044 6.90133 182.068 7.456C183.113 7.98933 183.881 8.68267 184.372 9.536C184.863 10.368 185.151 11.2427 185.236 12.16H180.276C180.148 11.6267 179.871 11.2 179.444 10.88C179.039 10.56 178.516 10.4 177.876 10.4C176.895 10.4 176.212 10.5493 175.828 10.848C175.465 11.1467 175.284 11.5093 175.284 11.936C175.284 12.3627 175.583 12.704 176.18 12.96C176.777 13.1947 177.727 13.3973 179.028 13.568C179.967 13.696 180.841 13.8773 181.652 14.112C182.484 14.3467 183.209 14.6773 183.828 15.104C184.468 15.5093 184.969 16.032 185.332 16.672C185.695 17.2907 185.876 18.048 185.876 18.944C185.876 20.0107 185.567 20.96 184.948 21.792C184.351 22.624 183.455 23.2747 182.26 23.744C181.087 24.192 179.625 24.416 177.876 24.416Z" fill="#FFFEFD"/>
</svg>
