<svg width="109" height="100" viewBox="0 0 109 100" fill="none" xmlns="http://www.w3.org/2000/svg">
<path d="M75.0066 3.08239L74.3046 5.24805L72.1032 5.97391L69.9019 6.71166L72.1032 7.43751L74.3165 8.17526L75.0185 10.3171C75.4112 11.4951 75.7563 12.459 75.792 12.459C75.8277 12.459 76.1727 11.4951 76.5416 10.329L77.2199 8.19906L79.4569 7.44941L81.6821 6.71166L79.4807 5.97391L77.2794 5.24805L76.5654 3.15379C76.1727 1.99956 75.8158 1.02383 75.7801 0.98813C75.7444 0.952432 75.3993 1.89247 75.0066 3.08239Z" fill="url(#paint0_linear_3024_4892)"/>
<path d="M93.0457 12.338L92.0343 15.4318L88.9167 16.467C87.2032 17.0382 85.8229 17.5379 85.8586 17.5736C85.8943 17.6093 87.2984 18.0972 88.9762 18.6565L92.0343 19.6798L93.0576 22.8212C93.6407 24.5942 94.1166 25.8793 94.1642 25.7841C94.1999 25.6889 94.6759 24.2729 95.2233 22.6427L96.2109 19.6679L99.1857 18.6803C100.816 18.1329 102.232 17.6569 102.327 17.6212C102.422 17.5736 101.137 17.0858 99.3523 16.4908L96.199 15.4437L95.1876 12.3499C94.6283 10.6483 94.1523 9.25608 94.1166 9.24418C94.0691 9.24418 93.5931 10.6364 93.0457 12.338Z" fill="url(#paint1_linear_3024_4892)"/>
<path d="M53.5168 30.066C53.3383 30.1136 53.0408 30.2683 52.8504 30.3992C52.6719 30.5301 47.4601 37.3127 41.2844 45.4636C35.0968 53.6146 29.992 60.2782 29.9444 60.2782C29.8968 60.2901 25.0776 56.8393 19.2351 52.6389C2.73087 40.7277 3.51622 41.287 2.98075 41.1918C1.43385 40.93 0.124936 42.0129 0.113037 43.536C0.113037 44 1.56474 47.9387 7.99032 64.9546C15.3083 84.3146 15.9152 85.8377 16.3198 86.2423C16.5578 86.4684 16.9623 86.7301 17.2241 86.8015C17.5811 86.9086 26.6245 86.9443 54.5163 86.9443H91.3444L91.868 86.6707C92.1535 86.516 92.5343 86.1828 92.7128 85.921C92.8913 85.6592 96.4849 76.3302 100.84 64.8118C109.407 42.1794 108.967 43.4884 108.372 42.4174C107.765 41.2989 106.314 40.8586 105.183 41.4417C105.017 41.525 98.9837 45.8206 91.7966 50.9968C84.5975 56.161 78.6717 60.3615 78.636 60.3139C78.5884 60.2663 73.567 53.6741 67.4627 45.654C61.3584 37.6339 56.1703 30.8752 55.9204 30.6372C55.2897 30.0303 54.3735 29.8043 53.5168 30.066ZM58.4549 59.0882L62.346 64.669L58.4668 70.2497C56.3369 73.3078 54.5401 75.8186 54.4925 75.8186C54.433 75.8186 52.6481 73.3078 50.5063 70.2497L46.6271 64.6809L50.5182 59.0882C52.66 56.0182 54.4449 53.5075 54.4925 53.5075C54.5282 53.5075 56.325 56.0182 58.4549 59.0882Z" fill="url(#paint2_linear_3024_4892)"/>
<path d="M24.5311 32.0696C24.3407 32.2243 23.4363 34.2591 21.5206 38.876C20.0094 42.5052 18.748 45.6228 18.7123 45.7894C18.5815 46.4915 18.8194 46.6818 23.5196 49.6567C28.8386 53.0241 28.91 53.0598 29.3979 52.917C30.0166 52.7386 29.6477 53.2978 34.4312 45.3729C35.6211 43.4096 35.9305 42.8027 35.9305 42.4695C35.9305 42.053 35.6806 41.7794 30.8377 36.9483C25.8281 31.9268 25.7448 31.8554 25.2807 31.8554C25.007 31.8554 24.6858 31.9506 24.5311 32.0696Z" fill="url(#paint3_linear_3024_4892)"/>
<path d="M82.8725 32.0774C82.6821 32.1964 80.3618 34.4573 77.7439 37.0989C72.6868 42.1918 72.663 42.2156 72.9961 42.9771C73.1151 43.2746 78.0533 51.4851 78.7078 52.4727C78.9457 52.8416 79.5169 53.032 79.9691 52.9011C80.3618 52.794 89.2981 47.1657 89.7502 46.7492C89.9882 46.5231 90.0715 46.3327 90.0715 45.9995C90.0715 45.3451 84.7169 32.482 84.3004 32.1131C83.9196 31.7919 83.3604 31.7681 82.8725 32.0774Z" fill="url(#paint4_linear_3024_4892)"/>
<path d="M17.3667 95.2757V99.4404H54.3733H91.3799V95.2757V91.111H54.3733H17.3667V95.2757Z" fill="url(#paint5_linear_3024_4892)"/>
<defs>
<linearGradient id="paint0_linear_3024_4892" x1="69.9019" y1="0.987144" x2="80.2832" y2="-0.163375" gradientUnits="userSpaceOnUse">
<stop stop-color="#FF6347"/>
<stop offset="1" stop-color="#D7341D"/>
</linearGradient>
<linearGradient id="paint1_linear_3024_4892" x1="85.8579" y1="9.24418" x2="100.386" y2="7.68291" gradientUnits="userSpaceOnUse">
<stop stop-color="#FF6347"/>
<stop offset="1" stop-color="#D7341D"/>
</linearGradient>
<linearGradient id="paint2_linear_3024_4892" x1="0.113036" y1="29.9585" x2="93.0122" y2="10.8623" gradientUnits="userSpaceOnUse">
<stop stop-color="#FF6347"/>
<stop offset="1" stop-color="#D7341D"/>
</linearGradient>
<linearGradient id="paint3_linear_3024_4892" x1="18.688" y1="31.8554" x2="33.951" y2="30.5095" gradientUnits="userSpaceOnUse">
<stop stop-color="#FF6347"/>
<stop offset="1" stop-color="#D7341D"/>
</linearGradient>
<linearGradient id="paint4_linear_3024_4892" x1="72.8765" y1="31.8583" x2="88.0978" y2="30.5185" gradientUnits="userSpaceOnUse">
<stop stop-color="#FF6347"/>
<stop offset="1" stop-color="#D7341D"/>
</linearGradient>
<linearGradient id="paint5_linear_3024_4892" x1="17.3667" y1="91.111" x2="51.7612" y2="58.1272" gradientUnits="userSpaceOnUse">
<stop stop-color="#FF6347"/>
<stop offset="1" stop-color="#D7341D"/>
</linearGradient>
</defs>
</svg>
