<svg width="21" height="20" viewBox="0 0 21 20" fill="var(--svg-fill)" xmlns="http://www.w3.org/2000/svg">
<path fill-rule="evenodd" clip-rule="evenodd" d="M15.7143 3.69572C16.1794 3.4448 17.2619 3.45265 17.7422 3.70357C18.5731 4.15052 18.9924 4.86407 19 5.83639C19 6.53426 18.8018 7.02041 18.3368 7.49089C17.8946 7.93 17.4525 8.11819 16.7206 8.18092C16.0269 8.23581 15.8744 8.31422 15.7143 8.71412C15.6229 8.92584 15.6305 9.06698 15.7677 9.73349C16.1717 11.686 15.6457 13.4973 14.2735 14.9009C13.2368 15.9594 11.9713 16.5005 10.5 16.5005C9.59282 16.5005 8.90672 16.328 8.06816 15.9046C7.48879 15.6066 7.2296 15.4184 6.72646 14.9009C5.35426 13.4973 4.82825 11.686 5.23229 9.73349C5.36951 9.06698 5.37713 8.92584 5.28565 8.71412C5.12556 8.31422 4.97309 8.23581 4.27937 8.18092C3.54753 8.11819 3.10538 7.93 2.66323 7.49089C2.19821 7.02041 2 6.53426 2 5.83639C2.00762 4.75429 2.50314 4.01722 3.52466 3.58595C3.88296 3.42912 4.90448 3.49969 5.28565 3.70357C5.91076 4.0329 6.35291 4.64452 6.53587 5.4208C6.65022 5.92264 6.95516 6.22845 7.33632 6.22845C7.47354 6.22845 7.83946 6.10299 8.14439 5.954C8.98296 5.5541 9.57758 5.41296 10.5 5.41296C11.4224 5.41296 12.017 5.5541 12.8556 5.954C13.1605 6.10299 13.5265 6.22845 13.6637 6.22845C14.0448 6.22845 14.3498 5.92264 14.4641 5.4208C14.6471 4.64452 15.0816 4.04074 15.7143 3.69572ZM5.98833 2.37833C6.85407 2.8356 7.46385 3.58705 7.8045 4.46031C8.69769 4.07086 9.46098 3.91296 10.5 3.91296C11.5389 3.91296 12.3021 4.07082 13.1951 4.46014C13.5344 3.58791 14.1381 2.84673 14.9963 2.37878L15.002 2.37563L15.002 2.37564C15.5666 2.071 16.2569 2.00909 16.7301 2.01147C17.2115 2.0139 17.8844 2.08548 18.4368 2.37408L18.4448 2.37826L18.4527 2.38254C19.0753 2.71745 19.6049 3.18812 19.9722 3.81149C20.3379 4.43222 20.4944 5.12206 20.5 5.82462L20.5 5.83639H20.5C20.5 6.91335 20.157 7.78312 19.4036 8.54535L19.3938 8.55525L19.3938 8.5552C19.0638 8.88294 18.6886 9.15935 18.226 9.35671C17.9133 9.49011 17.595 9.57267 17.2744 9.62401C17.7039 11.9869 17.0263 14.2309 15.3461 15.9495L15.3452 15.9504C14.0321 17.2912 12.3828 18.0005 10.5 18.0005C9.34209 18.0005 8.42563 17.7654 7.39205 17.2435L7.38211 17.2385L7.38213 17.2385C6.65388 16.8639 6.26417 16.577 5.6524 15.948C3.97332 14.2296 3.29624 11.9862 3.72561 9.62401C3.40498 9.57267 3.08666 9.49011 2.774 9.35671C2.31145 9.15935 1.93624 8.88294 1.60624 8.5552L1.59636 8.54539L1.5964 8.54535C0.843007 7.78312 0.5 6.91335 0.5 5.83639V5.82582L0.500037 5.82582C0.505482 5.05293 0.688698 4.29359 1.13954 3.62687C1.58775 2.96403 2.22192 2.50888 2.93471 2.20682C3.24921 2.07157 3.5716 2.03088 3.77694 2.01434C4.0164 1.99505 4.26507 1.99717 4.4978 2.01291C4.88897 2.03937 5.50471 2.12128 5.98833 2.37833ZM4.44038 9.70751C4.44034 9.70753 4.43892 9.70725 4.43624 9.70659C4.43908 9.70717 4.44042 9.70749 4.44038 9.70751ZM16.5638 9.70659C16.5611 9.70724 16.5597 9.70753 16.5596 9.70752C16.5596 9.7075 16.5609 9.70717 16.5638 9.70659ZM12.9981 5.1007C12.998 5.10067 12.9983 5.09965 12.999 5.09772C12.9984 5.09976 12.9981 5.10073 12.9981 5.1007ZM8.00194 5.1007C8.00191 5.10073 8.00156 5.09976 8.00097 5.09772C8.00167 5.09965 8.00197 5.10067 8.00194 5.1007Z" />
</svg>
