<svg width="21" height="20" viewBox="0 0 21 20" fill="none" xmlns="http://www.w3.org/2000/svg">
<path fill-rule="evenodd" clip-rule="evenodd" d="M18.2777 16.9511C18.2777 17.4067 17.9066 17.7778 17.4511 17.7778H16.0555V15.5555H18.2777V16.9511ZM2.72219 16.9511V15.5555H4.94441V17.7778H3.54886C3.0933 17.7778 2.72219 17.4067 2.72219 16.9511ZM3.54886 2.22221H4.94441V4.44444H2.72219V3.04888C2.72219 2.59332 3.0933 2.22221 3.54886 2.22221ZM18.2777 3.04888V4.44444H16.0555V2.22221H17.4511C17.9066 2.22221 18.2777 2.59332 18.2777 3.04888ZM16.0555 13.3333H18.2777V11.1111H16.0555V13.3333ZM16.0555 8.88889H18.2777V6.66667H16.0555V8.88889ZM7.16667 17.7778H13.8333V2.22221H7.16667V17.7778ZM2.72219 13.3333H4.94441V11.1111H2.72219V13.3333ZM2.72219 8.88889H4.94441V6.66667H2.72219V8.88889ZM17.4511 0H3.54889C1.86778 0 0.5 1.36889 0.5 3.04889V16.9511C0.5 18.6322 1.86778 20 3.54889 20H17.4511C19.1322 20 20.5 18.6322 20.5 16.9511V3.04889C20.5 1.36889 19.1322 0 17.4511 0Z" fill="var(--svg-fill)"/>
</svg>
