<svg width="17" height="20" viewBox="0 0 17 20" fill="none" xmlns="http://www.w3.org/2000/svg">
<path fill-rule="evenodd" clip-rule="evenodd" d="M8.30111 13.8948C8.48888 13.8948 8.67776 13.9425 8.84775 14.0381L14.0552 16.9835V2.59319C14.0552 2.36986 13.9208 2.2221 13.833 2.2221H3.16696C3.07808 2.2221 2.94475 2.36986 2.94475 2.59319V16.9257L7.72892 14.0536C7.90558 13.9481 8.10335 13.8948 8.30111 13.8948ZM1.8337 19.9989C1.64483 19.9989 1.45595 19.9511 1.28596 19.8544C0.9382 19.6578 0.722656 19.2878 0.722656 18.8878V2.59319C0.722656 1.16327 1.81926 0 3.16696 0H13.833C15.1807 0 16.2773 1.16327 16.2773 2.59319V18.8878C16.2773 19.2833 16.0673 19.6489 15.7262 19.8478C15.384 20.0477 14.9641 20.0511 14.6196 19.8555L8.31778 16.2913L2.40478 19.8411C2.22924 19.9455 2.03147 19.9989 1.8337 19.9989Z" fill="var(--svg-fill)"/>
</svg>
