<svg width="21" height="20" viewBox="0 0 21 20" fill="none" xmlns="http://www.w3.org/2000/svg">
<path d="M7.82394 0.350121C4.80986 1.30047 2.58451 3.20117 1.28873 5.96836C0.612676 7.39388 0.5 8.00881 0.5 10.0213C0.5 12.0338 0.612676 12.6488 1.28873 14.1022C4.9507 21.9845 15.993 21.9566 19.7113 14.0743C20.3873 12.6488 20.5 12.0338 20.5 10.0213C20.5 8.00881 20.3873 7.39388 19.7113 5.96836C18.8662 4.15152 17.4296 2.50238 15.8239 1.49613C13.6268 0.0985565 10.2183 -0.404568 7.82394 0.350121ZM16.1338 4.54284C16.1338 4.76645 12.4155 11.3071 12.1056 11.6145C11.5986 12.1177 5.11972 15.6675 4.9507 15.5278C4.89437 15.4439 5.76761 13.7948 6.89437 11.8382L8.9507 8.26038L12.331 6.38763C15.5423 4.57079 16.1338 4.29127 16.1338 4.54284Z" fill="var(--svg-fill)"/>
<path d="M9.76775 9.57432C9.48606 10.3011 9.88042 10.916 10.5565 10.8042C11.4861 10.6924 11.4861 9.35071 10.5565 9.23891C10.1903 9.183 9.85225 9.32276 9.76775 9.57432Z" fill="var(--svg-fill)"/>
</svg>
