<svg width="21" height="20" viewBox="0 0 21 20" fill="none" xmlns="http://www.w3.org/2000/svg">
<rect x="1.25" y="0.75" width="18.5" height="18.5" rx="4.25" stroke="var(--svg-fill)" stroke-width="1.5"/>
<path d="M10.9651 5.37064C10.9187 5.28799 10.8512 5.21918 10.7695 5.17129C10.6877 5.12339 10.5947 5.09814 10.4999 5.09814C10.4052 5.09814 10.3121 5.12339 10.2304 5.17129C10.1486 5.21918 10.0811 5.28799 10.0348 5.37064C9.92587 5.56889 9.82111 5.76968 9.72053 5.97301C9.40365 6.61621 9.13424 7.28171 8.91444 7.96421C8.83874 8.19895 8.61434 8.3618 8.35726 8.36888C7.57798 8.38936 6.80123 8.46672 6.03322 8.60035C5.61166 8.67442 5.45316 9.15479 5.75272 9.4478C5.82099 9.51498 5.88998 9.58124 5.95969 9.6466C6.48096 10.1389 7.03211 10.5985 7.61 11.0229C7.80988 11.1694 7.89213 11.4205 7.81588 11.6503C7.52541 12.5234 7.31753 13.4218 7.19497 14.3338C7.1405 14.745 7.58058 15.0352 7.96293 14.8392C8.72111 14.4504 9.44612 14.0001 10.1307 13.4928C10.2379 13.4146 10.3672 13.3724 10.4999 13.3724C10.6327 13.3724 10.762 13.4146 10.8692 13.4928C11.5536 14.0003 12.2786 14.4506 13.0369 14.8392C13.4187 15.0352 13.8594 14.745 13.8049 14.3338C13.7838 14.1794 13.7608 14.026 13.7357 13.8735C13.6099 13.1192 13.4254 12.3759 13.184 11.6503C13.1077 11.4205 13.1894 11.1694 13.3899 11.0229C14.0455 10.5425 14.6661 10.0162 15.2471 9.4478C15.5467 9.15479 15.3888 8.67442 14.9666 8.60035C14.1987 8.46595 13.4219 8.38858 12.6426 8.36888C12.5194 8.36692 12.3998 8.32701 12.3001 8.25459C12.2004 8.18217 12.1254 8.08077 12.0854 7.96421C11.796 7.06592 11.4209 6.19703 10.9651 5.37064Z" stroke="var(--svg-fill)" stroke-width="1.5" stroke-linecap="round" stroke-linejoin="round"/>
</svg>
