<svg width="21" height="20" viewBox="0 0 21 20" fill="none" xmlns="http://www.w3.org/2000/svg">
<path fill-rule="evenodd" clip-rule="evenodd" d="M2.72222 8.88889C2.72222 5.21222 5.71222 2.22222 9.38889 2.22222C13.0656 2.22222 16.0556 5.21222 16.0556 8.88889C16.0556 12.5656 13.0656 15.5556 9.38889 15.5556C5.71222 15.5556 2.72222 12.5656 2.72222 8.88889ZM20.1744 18.1033L16.4022 14.33C17.5722 12.8256 18.2778 10.94 18.2778 8.88889C18.2778 3.98778 14.29 0 9.38889 0C4.48778 0 0.5 3.98778 0.5 8.88889C0.5 13.79 4.48778 17.7778 9.38889 17.7778C11.44 17.7778 13.3256 17.0722 14.83 15.9022L18.6033 19.6744C18.82 19.8911 19.1044 20 19.3889 20C19.6733 20 19.9578 19.8911 20.1744 19.6744C20.6089 19.24 20.6089 18.5378 20.1744 18.1033" fill="var(--svg-fill)"/>
</svg>
