<svg width="21" height="16" viewBox="0 0 21 16" fill="none" xmlns="http://www.w3.org/2000/svg">
<path d="M1.55957 14.6738C1.70552 14.57 1.92728 14.408 2.24805 14.1709C2.88847 13.6975 3.91104 12.9346 5.4834 11.7559V11.7549C6.60165 10.9155 7.62935 10.1417 8.38281 9.57129C8.75958 9.28606 9.06728 9.05231 9.2832 8.88672C9.39137 8.80376 9.47502 8.73922 9.53223 8.69434C9.54513 8.68421 9.5561 8.67538 9.56543 8.66797C9.59433 8.63174 9.64236 8.55621 9.68652 8.42578L9.73535 8.25L9.73633 8.24512C9.7372 8.2394 9.74086 8.21684 9.74414 8.17383C9.74804 8.12272 9.75 8.06057 9.75 7.99512C9.75 7.9297 9.74804 7.86751 9.74414 7.81641L9.73633 7.74512L9.73535 7.74023C9.68484 7.51786 9.62028 7.39773 9.57031 7.33105C9.56066 7.32339 9.54997 7.31381 9.53711 7.30371C9.47532 7.25519 9.3855 7.18593 9.27051 7.09766C9.04093 6.92143 8.71702 6.67503 8.33008 6.38184C7.55658 5.79575 6.53335 5.02445 5.50879 4.25488C4.48421 3.4853 3.45883 2.7183 2.68164 2.13965C2.29284 1.85017 1.96668 1.60818 1.73438 1.4375C1.63436 1.36402 1.55223 1.30574 1.49121 1.26172C1.47488 1.27829 1.45166 1.30437 1.42383 1.3457C1.36168 1.44 1.324 1.51488 1.29688 1.62207L1.27246 1.74219L1.27148 1.74902L1.26367 1.86621C1.26015 1.97236 1.25605 2.18199 1.25391 2.60254C1.24979 3.41076 1.25 4.95494 1.25 7.99512C1.25 11.0355 1.24979 12.5795 1.25391 13.3877C1.25604 13.8072 1.26016 14.0166 1.26367 14.123L1.27148 14.2412L1.27246 14.2471C1.29531 14.3842 1.3232 14.4693 1.36816 14.5518L1.41895 14.6348L1.4209 14.6387C1.44764 14.6788 1.47119 14.7057 1.48926 14.7236C1.50977 14.7093 1.53307 14.6927 1.55957 14.6738Z" stroke="var(--svg-fill)" stroke-width="1.5"/>
<path d="M10.5303 14.6514C10.6953 14.547 10.9456 14.3847 11.3066 14.1475L14.9473 11.7305C16.2052 10.8911 17.3603 10.1173 18.208 9.54688C18.632 9.26156 18.9785 9.0281 19.2217 8.8623L19.5498 8.63672C19.5843 8.5987 19.6359 8.52395 19.6836 8.39844L19.7354 8.23047L19.7373 8.22559C19.7341 8.2377 19.7385 8.22156 19.7432 8.16699C19.7473 8.11857 19.75 8.05857 19.75 7.99512C19.75 7.93164 19.7473 7.87169 19.7432 7.82324L19.7373 7.76465L19.7354 7.75977C19.6802 7.54387 19.6108 7.42755 19.5527 7.36035C19.5405 7.35166 19.526 7.3411 19.5088 7.3291C19.4389 7.28031 19.3375 7.21041 19.208 7.12207C18.9495 6.94568 18.5848 6.69947 18.1494 6.40625C17.2792 5.82013 16.1282 5.04884 14.9756 4.2793C13.8227 3.50959 12.6685 2.74186 11.7939 2.16309C11.3566 1.87366 10.9901 1.63174 10.7285 1.46094C10.5975 1.37538 10.4944 1.30835 10.4229 1.2627C10.4178 1.2595 10.4128 1.25683 10.4082 1.25391C10.3998 1.25314 10.3907 1.25141 10.3809 1.25098C10.3608 1.25011 10.3427 1.25025 10.3291 1.25098C10.312 1.2581 10.2821 1.27209 10.2422 1.31348L10.1846 1.38281C10.1164 1.47521 10.0779 1.54601 10.0498 1.64551L10.0244 1.75781L10.0234 1.76465L10.0146 1.87012C10.0108 1.97339 10.0073 2.18114 10.0049 2.60254C10.0003 3.41034 10 4.95427 10 7.99512C10 11.0359 10.0003 12.5799 10.0049 13.3877C10.0073 13.8092 10.0108 14.0169 10.0146 14.1201L10.0234 14.2256L10.0244 14.2324C10.0484 14.3604 10.076 14.4398 10.125 14.5195L10.1816 14.6016L10.1846 14.6045C10.2579 14.7022 10.3176 14.7347 10.3428 14.7441C10.352 14.7476 10.3605 14.7498 10.3701 14.75C10.4064 14.7283 10.4587 14.6966 10.5303 14.6514Z" stroke="var(--svg-fill)" stroke-width="1.5"/>
</svg>
